<svg xmlns="http://www.w3.org/2000/svg" width="192" height="192" viewBox="0 0 512 512" role="img" aria-label="PASUNDAN POS">
  <rect width="512" height="512" rx="112" fill="#047857"/>
  <path fill="#f4f8f6" d="M132 158c0-20 16-36 36-36h176c20 0 36 16 36 36v196c0 20-16 36-36 36H168c-20 0-36-16-36-36V158Z"/>
  <path fill="#10b981" d="M168 166c0-8 6-14 14-14h148c8 0 14 6 14 14v72H168v-72Z"/>
  <path fill="#064e3b" d="M192 184h128v28H192v-28Z"/>
  <g fill="#047857">
    <rect x="176" y="268" width="48" height="40" rx="10"/>
    <rect x="232" y="268" width="48" height="40" rx="10"/>
    <rect x="288" y="268" width="48" height="40" rx="10"/>
    <rect x="176" y="320" width="48" height="40" rx="10"/>
    <rect x="232" y="320" width="104" height="40" rx="10"/>
  </g>
</svg>
